<svg width="128" height="128" viewBox="0 0 128 128" fill="none" xmlns="http://www.w3.org/2000/svg">
  <rect width="128" height="128" rx="30" fill="url(#bg)"/>
  <rect x="10" y="10" width="108" height="108" rx="24" fill="url(#glass)" stroke="white" stroke-opacity="0.18" stroke-width="1.5"/>
  <path d="M26 31H39V54H58V31H71V97H58V66H39V97H26V31Z" fill="white"/>
  <path d="M79 31H94.5C106.3 31 113 37.1 113 47.9C113 55.5 109.4 60.9 102.6 63.9L114.1 97H100.1L90.8 67.9H94C99.7 67.9 103.1 64.5 103.1 59.6C103.1 54.4 99.3 50.9 92.8 50.9H79V31Z" fill="#F7FFE9"/>
  <path d="M83 18C90.3 20 96.6 23.7 101.9 29.1" stroke="#D9FF9D" stroke-width="5" stroke-linecap="round"/>
  <path d="M92 14C100.9 16.3 108.3 20.8 114 27.6" stroke="white" stroke-opacity="0.5" stroke-width="3" stroke-linecap="round"/>
  <path d="M18 92C22.4 98.5 28.3 103.7 35.2 107.1" stroke="white" stroke-opacity="0.24" stroke-width="3" stroke-linecap="round"/>
  <defs>
    <linearGradient id="bg" x1="14" y1="10" x2="115" y2="118" gradientUnits="userSpaceOnUse">
      <stop stop-color="#155C3B"/>
      <stop offset="0.55" stop-color="#1D6B47"/>
      <stop offset="1" stop-color="#A4C84C"/>
    </linearGradient>
    <linearGradient id="glass" x1="24" y1="18" x2="104" y2="112" gradientUnits="userSpaceOnUse">
      <stop stop-color="white" stop-opacity="0.12"/>
      <stop offset="1" stop-color="white" stop-opacity="0.03"/>
    </linearGradient>
  </defs>
</svg>
