<svg width="64" height="64" viewBox="0 0 64 64" fill="none" xmlns="http://www.w3.org/2000/svg">
  <rect width="64" height="64" rx="16" fill="url(#bg)"/>
  <rect x="5" y="5" width="54" height="54" rx="12" fill="url(#glass)" stroke="white" stroke-opacity="0.18"/>
  <path d="M12 15H18.5V27H28V15H34.5V49H28V33H18.5V49H12V15Z" fill="white"/>
  <path d="M38.5 15H46C52.4 15 56 18.3 56 24.3C56 28.5 54 31.4 50.2 33L56.4 49H48.8L43.8 35H45.3C48.4 35 50.4 33.2 50.4 30.4C50.4 27.5 48.2 25.6 44.7 25.6H38.5V15Z" fill="#F7FFE9"/>
  <path d="M40 9.5C43.8 10.5 47 12.5 49.8 15.2" stroke="#D9FF9D" stroke-width="2.5" stroke-linecap="round"/>
  <defs>
    <linearGradient id="bg" x1="7" y1="5" x2="57" y2="59" gradientUnits="userSpaceOnUse">
      <stop stop-color="#155C3B"/>
      <stop offset="0.55" stop-color="#1D6B47"/>
      <stop offset="1" stop-color="#A4C84C"/>
    </linearGradient>
    <linearGradient id="glass" x1="12" y1="10" x2="52" y2="56" gradientUnits="userSpaceOnUse">
      <stop stop-color="white" stop-opacity="0.12"/>
      <stop offset="1" stop-color="white" stop-opacity="0.03"/>
    </linearGradient>
  </defs>
</svg>
